<mxfile host="app.diagrams.net" modified="2021-12-12T14:09:08.334Z" agent="5.0 (Macintosh; Intel Mac OS X 10_15_7) AppleWebKit/537.36 (KHTML, like Gecko) Chrome/96.0.4664.93 Safari/537.36" etag="7NiBr70_eUw7G5NmeY2a" version="15.9.4" type="github">
  <diagram id="jUCnDNcfXhItBj9dQEkn" name="Page-1">
    <mxGraphModel dx="946" dy="614" grid="0" gridSize="10" guides="1" tooltips="1" connect="1" arrows="1" fold="1" page="0" pageScale="1" pageWidth="827" pageHeight="1169" background="#DAD2D8" math="0" shadow="0">
      <root>
        <mxCell id="0" />
        <mxCell id="1" parent="0" />
        <mxCell id="0_cgmdYACFYFVNxgg6Bf-1" value="ReadBook" style="rounded=0;whiteSpace=wrap;html=1;fillColor=#FAE5C7;strokeColor=#0F8B8D;fontColor=#143642;" parent="1" vertex="1">
          <mxGeometry x="362" y="420" width="90" height="40" as="geometry" />
        </mxCell>
        <mxCell id="TISyKrs998pfCiCvNHpI-1" value="Student" style="rounded=0;whiteSpace=wrap;html=1;fillColor=#FAE5C7;strokeColor=#0F8B8D;fontColor=#143642;" parent="1" vertex="1">
          <mxGeometry x="92" y="310" width="90" height="40" as="geometry" />
        </mxCell>
        <mxCell id="TISyKrs998pfCiCvNHpI-2" value="Admin" style="rounded=0;whiteSpace=wrap;html=1;fillColor=#FAE5C7;strokeColor=#0F8B8D;fontColor=#143642;" parent="1" vertex="1">
          <mxGeometry x="92" y="500" width="90" height="40" as="geometry" />
        </mxCell>
        <mxCell id="TISyKrs998pfCiCvNHpI-3" value="Inventory" style="rounded=0;whiteSpace=wrap;html=1;fillColor=#FAE5C7;strokeColor=#0F8B8D;fontColor=#143642;" parent="1" vertex="1">
          <mxGeometry x="642" y="500" width="90" height="40" as="geometry" />
        </mxCell>
        <mxCell id="TISyKrs998pfCiCvNHpI-4" value="Book" style="rounded=0;whiteSpace=wrap;html=1;fillColor=#FAE5C7;strokeColor=#0F8B8D;fontColor=#143642;" parent="1" vertex="1">
          <mxGeometry x="642" y="310" width="90" height="40" as="geometry" />
        </mxCell>
        <mxCell id="TISyKrs998pfCiCvNHpI-6" value="Register" style="rhombus;whiteSpace=wrap;html=1;rotation=20;fillColor=#FAE5C7;strokeColor=#0F8B8D;fontColor=#143642;" parent="1" vertex="1">
          <mxGeometry x="502" y="470" width="70" height="40" as="geometry" />
        </mxCell>
        <mxCell id="TISyKrs998pfCiCvNHpI-7" value="1" style="endArrow=none;html=1;rounded=0;exitX=1;exitY=1;exitDx=0;exitDy=0;labelBackgroundColor=#DAD2D8;strokeColor=#A8201A;fontColor=#143642;fillColor=#FAE5C7;" parent="1" source="0_cgmdYACFYFVNxgg6Bf-1" edge="1">
          <mxGeometry width="50" height="50" relative="1" as="geometry">
            <mxPoint x="442" y="510" as="sourcePoint" />
            <mxPoint x="502" y="480" as="targetPoint" />
          </mxGeometry>
        </mxCell>
        <mxCell id="TISyKrs998pfCiCvNHpI-8" value="1" style="endArrow=none;html=1;rounded=0;exitX=0;exitY=0.5;exitDx=0;exitDy=0;entryX=1;entryY=0.5;entryDx=0;entryDy=0;labelBackgroundColor=#DAD2D8;strokeColor=#A8201A;fontColor=#143642;fillColor=#FAE5C7;" parent="1" source="TISyKrs998pfCiCvNHpI-3" target="TISyKrs998pfCiCvNHpI-6" edge="1">
          <mxGeometry width="50" height="50" relative="1" as="geometry">
            <mxPoint x="512" y="590" as="sourcePoint" />
            <mxPoint x="572" y="500" as="targetPoint" />
          </mxGeometry>
        </mxCell>
        <mxCell id="TISyKrs998pfCiCvNHpI-9" value="Record" style="rhombus;whiteSpace=wrap;html=1;rotation=0;fillColor=#FAE5C7;strokeColor=#0F8B8D;fontColor=#143642;" parent="1" vertex="1">
          <mxGeometry x="652" y="400" width="70" height="40" as="geometry" />
        </mxCell>
        <mxCell id="TISyKrs998pfCiCvNHpI-10" value="1" style="endArrow=none;html=1;rounded=0;entryX=0.5;entryY=1;entryDx=0;entryDy=0;exitX=0.5;exitY=0;exitDx=0;exitDy=0;labelBackgroundColor=#DAD2D8;strokeColor=#A8201A;fontColor=#143642;fillColor=#FAE5C7;" parent="1" source="TISyKrs998pfCiCvNHpI-9" target="TISyKrs998pfCiCvNHpI-4" edge="1">
          <mxGeometry width="50" height="50" relative="1" as="geometry">
            <mxPoint x="682" y="400" as="sourcePoint" />
            <mxPoint x="732" y="350" as="targetPoint" />
          </mxGeometry>
        </mxCell>
        <mxCell id="TISyKrs998pfCiCvNHpI-11" value="1" style="endArrow=none;html=1;rounded=0;exitX=0.5;exitY=0;exitDx=0;exitDy=0;labelBackgroundColor=#DAD2D8;strokeColor=#A8201A;fontColor=#143642;fillColor=#FAE5C7;" parent="1" source="TISyKrs998pfCiCvNHpI-3" target="TISyKrs998pfCiCvNHpI-9" edge="1">
          <mxGeometry width="50" height="50" relative="1" as="geometry">
            <mxPoint x="672" y="490" as="sourcePoint" />
            <mxPoint x="722" y="440" as="targetPoint" />
          </mxGeometry>
        </mxCell>
        <mxCell id="TISyKrs998pfCiCvNHpI-13" value="Borrow" style="rhombus;whiteSpace=wrap;html=1;rotation=20;fillColor=#FAE5C7;strokeColor=#0F8B8D;fontColor=#143642;" parent="1" vertex="1">
          <mxGeometry x="232" y="370" width="70" height="40" as="geometry" />
        </mxCell>
        <mxCell id="TISyKrs998pfCiCvNHpI-14" value="Lend" style="rhombus;whiteSpace=wrap;html=1;rotation=-25;fillColor=#FAE5C7;strokeColor=#0F8B8D;fontColor=#143642;" parent="1" vertex="1">
          <mxGeometry x="242" y="470" width="70" height="40" as="geometry" />
        </mxCell>
        <mxCell id="TISyKrs998pfCiCvNHpI-15" value="n" style="endArrow=none;html=1;rounded=0;entryX=0;entryY=1;entryDx=0;entryDy=0;exitX=1;exitY=0.5;exitDx=0;exitDy=0;labelBackgroundColor=#DAD2D8;strokeColor=#A8201A;fontColor=#143642;fillColor=#FAE5C7;" parent="1" source="TISyKrs998pfCiCvNHpI-14" target="0_cgmdYACFYFVNxgg6Bf-1" edge="1">
          <mxGeometry width="50" height="50" relative="1" as="geometry">
            <mxPoint x="342" y="540" as="sourcePoint" />
            <mxPoint x="392" y="490" as="targetPoint" />
          </mxGeometry>
        </mxCell>
        <mxCell id="TISyKrs998pfCiCvNHpI-16" value="1" style="endArrow=none;html=1;rounded=0;entryX=0;entryY=0.5;entryDx=0;entryDy=0;exitX=1;exitY=0.75;exitDx=0;exitDy=0;labelBackgroundColor=#DAD2D8;strokeColor=#A8201A;fontColor=#143642;fillColor=#FAE5C7;" parent="1" source="TISyKrs998pfCiCvNHpI-2" target="TISyKrs998pfCiCvNHpI-14" edge="1">
          <mxGeometry width="50" height="50" relative="1" as="geometry">
            <mxPoint x="192" y="620" as="sourcePoint" />
            <mxPoint x="242" y="570" as="targetPoint" />
          </mxGeometry>
        </mxCell>
        <mxCell id="TISyKrs998pfCiCvNHpI-17" value="n" style="endArrow=none;html=1;rounded=0;entryX=0;entryY=0;entryDx=0;entryDy=0;exitX=1;exitY=0.5;exitDx=0;exitDy=0;labelBackgroundColor=#DAD2D8;strokeColor=#A8201A;fontColor=#143642;fillColor=#FAE5C7;" parent="1" source="TISyKrs998pfCiCvNHpI-13" target="0_cgmdYACFYFVNxgg6Bf-1" edge="1">
          <mxGeometry width="50" height="50" relative="1" as="geometry">
            <mxPoint x="302" y="400" as="sourcePoint" />
            <mxPoint x="342" y="230" as="targetPoint" />
          </mxGeometry>
        </mxCell>
        <mxCell id="TISyKrs998pfCiCvNHpI-18" value="1" style="endArrow=none;html=1;rounded=0;exitX=0;exitY=0.5;exitDx=0;exitDy=0;entryX=1;entryY=1;entryDx=0;entryDy=0;labelBackgroundColor=#DAD2D8;strokeColor=#A8201A;fontColor=#143642;fillColor=#FAE5C7;" parent="1" source="TISyKrs998pfCiCvNHpI-13" target="TISyKrs998pfCiCvNHpI-1" edge="1">
          <mxGeometry width="50" height="50" relative="1" as="geometry">
            <mxPoint x="232" y="300" as="sourcePoint" />
            <mxPoint x="282" y="250" as="targetPoint" />
          </mxGeometry>
        </mxCell>
        <mxCell id="TISyKrs998pfCiCvNHpI-19" value="Id" style="ellipse;whiteSpace=wrap;html=1;fillColor=#FAE5C7;strokeColor=#0F8B8D;fontColor=#143642;" parent="1" vertex="1">
          <mxGeometry x="12" y="505" width="60" height="30" as="geometry" />
        </mxCell>
        <mxCell id="TISyKrs998pfCiCvNHpI-20" value="name" style="ellipse;whiteSpace=wrap;html=1;fillColor=#FAE5C7;strokeColor=#0F8B8D;fontColor=#143642;" parent="1" vertex="1">
          <mxGeometry x="172" y="570" width="60" height="30" as="geometry" />
        </mxCell>
        <mxCell id="TISyKrs998pfCiCvNHpI-21" value="password" style="ellipse;whiteSpace=wrap;html=1;fillColor=#FAE5C7;strokeColor=#0F8B8D;fontColor=#143642;" parent="1" vertex="1">
          <mxGeometry x="92" y="570" width="60" height="30" as="geometry" />
        </mxCell>
        <mxCell id="TISyKrs998pfCiCvNHpI-22" value="right" style="ellipse;whiteSpace=wrap;html=1;fillColor=#FAE5C7;strokeColor=#0F8B8D;fontColor=#143642;" parent="1" vertex="1">
          <mxGeometry x="22" y="555" width="60" height="30" as="geometry" />
        </mxCell>
        <mxCell id="TISyKrs998pfCiCvNHpI-23" value="name" style="ellipse;whiteSpace=wrap;html=1;fillColor=#FAE5C7;strokeColor=#0F8B8D;fontColor=#143642;" parent="1" vertex="1">
          <mxGeometry x="762" y="290" width="60" height="30" as="geometry" />
        </mxCell>
        <mxCell id="TISyKrs998pfCiCvNHpI-24" value="class" style="ellipse;whiteSpace=wrap;html=1;fillColor=#FAE5C7;strokeColor=#0F8B8D;fontColor=#143642;" parent="1" vertex="1">
          <mxGeometry x="742" y="250" width="60" height="30" as="geometry" />
        </mxCell>
        <mxCell id="TISyKrs998pfCiCvNHpI-25" value="author" style="ellipse;whiteSpace=wrap;html=1;fillColor=#FAE5C7;strokeColor=#0F8B8D;fontColor=#143642;" parent="1" vertex="1">
          <mxGeometry x="752" y="340" width="60" height="30" as="geometry" />
        </mxCell>
        <mxCell id="TISyKrs998pfCiCvNHpI-26" value="press" style="ellipse;whiteSpace=wrap;html=1;fillColor=#FAE5C7;strokeColor=#0F8B8D;fontColor=#143642;" parent="1" vertex="1">
          <mxGeometry x="602" y="250" width="60" height="30" as="geometry" />
        </mxCell>
        <mxCell id="TISyKrs998pfCiCvNHpI-27" value="ISBN" style="ellipse;whiteSpace=wrap;html=1;fillColor=#FAE5C7;strokeColor=#0F8B8D;fontColor=#143642;" parent="1" vertex="1">
          <mxGeometry x="672" y="220" width="60" height="30" as="geometry" />
        </mxCell>
        <mxCell id="TISyKrs998pfCiCvNHpI-28" value="sex" style="ellipse;whiteSpace=wrap;html=1;fillColor=#FAE5C7;strokeColor=#0F8B8D;fontColor=#143642;" parent="1" vertex="1">
          <mxGeometry x="152" y="270" width="60" height="30" as="geometry" />
        </mxCell>
        <mxCell id="TISyKrs998pfCiCvNHpI-29" value="name" style="ellipse;whiteSpace=wrap;html=1;fillColor=#FAE5C7;strokeColor=#0F8B8D;fontColor=#143642;" parent="1" vertex="1">
          <mxGeometry x="12" y="350" width="60" height="30" as="geometry" />
        </mxCell>
        <mxCell id="TISyKrs998pfCiCvNHpI-30" value="student_id" style="ellipse;whiteSpace=wrap;html=1;fillColor=#FAE5C7;strokeColor=#0F8B8D;fontColor=#143642;" parent="1" vertex="1">
          <mxGeometry x="52" y="380" width="60" height="30" as="geometry" />
        </mxCell>
        <mxCell id="TISyKrs998pfCiCvNHpI-31" value="card_id" style="ellipse;whiteSpace=wrap;html=1;fillColor=#FAE5C7;strokeColor=#0F8B8D;fontColor=#143642;" parent="1" vertex="1">
          <mxGeometry x="82" y="250" width="60" height="30" as="geometry" />
        </mxCell>
        <mxCell id="TISyKrs998pfCiCvNHpI-34" value="telephone" style="ellipse;whiteSpace=wrap;html=1;fillColor=#FAE5C7;strokeColor=#0F8B8D;fontColor=#143642;" parent="1" vertex="1">
          <mxGeometry x="12" y="310" width="60" height="30" as="geometry" />
        </mxCell>
        <mxCell id="TISyKrs998pfCiCvNHpI-35" value="loss" style="ellipse;whiteSpace=wrap;html=1;fillColor=#FAE5C7;strokeColor=#0F8B8D;fontColor=#143642;" parent="1" vertex="1">
          <mxGeometry x="122" y="380" width="60" height="30" as="geometry" />
        </mxCell>
        <mxCell id="TISyKrs998pfCiCvNHpI-36" value="valid_date" style="ellipse;whiteSpace=wrap;html=1;fillColor=#FAE5C7;strokeColor=#0F8B8D;fontColor=#143642;" parent="1" vertex="1">
          <mxGeometry x="212" y="290" width="60" height="30" as="geometry" />
        </mxCell>
        <mxCell id="TISyKrs998pfCiCvNHpI-37" value="enroll_date" style="ellipse;whiteSpace=wrap;html=1;fillColor=#FAE5C7;strokeColor=#0F8B8D;fontColor=#143642;" parent="1" vertex="1">
          <mxGeometry x="22" y="270" width="60" height="30" as="geometry" />
        </mxCell>
        <mxCell id="TISyKrs998pfCiCvNHpI-38" value="debate" style="ellipse;whiteSpace=wrap;html=1;fillColor=#FAE5C7;strokeColor=#0F8B8D;fontColor=#143642;" parent="1" vertex="1">
          <mxGeometry x="222" y="330" width="60" height="30" as="geometry" />
        </mxCell>
        <mxCell id="TISyKrs998pfCiCvNHpI-39" value="barcode" style="ellipse;whiteSpace=wrap;html=1;fillColor=#FAE5C7;strokeColor=#0F8B8D;fontColor=#143642;" parent="1" vertex="1">
          <mxGeometry x="752" y="560" width="60" height="30" as="geometry" />
        </mxCell>
        <mxCell id="TISyKrs998pfCiCvNHpI-40" value="withdraw" style="ellipse;whiteSpace=wrap;html=1;fillColor=#FAE5C7;strokeColor=#0F8B8D;fontColor=#143642;" parent="1" vertex="1">
          <mxGeometry x="602" y="450" width="60" height="30" as="geometry" />
        </mxCell>
        <mxCell id="TISyKrs998pfCiCvNHpI-41" value="location" style="ellipse;whiteSpace=wrap;html=1;fillColor=#FAE5C7;strokeColor=#0F8B8D;fontColor=#143642;" parent="1" vertex="1">
          <mxGeometry x="562" y="530" width="60" height="30" as="geometry" />
        </mxCell>
        <mxCell id="TISyKrs998pfCiCvNHpI-42" value="name" style="ellipse;whiteSpace=wrap;html=1;fillColor=#FAE5C7;strokeColor=#0F8B8D;fontColor=#143642;" parent="1" vertex="1">
          <mxGeometry x="612" y="570" width="60" height="30" as="geometry" />
        </mxCell>
        <mxCell id="TISyKrs998pfCiCvNHpI-43" value="storage" style="ellipse;whiteSpace=wrap;html=1;fillColor=#FAE5C7;strokeColor=#0F8B8D;fontColor=#143642;" parent="1" vertex="1">
          <mxGeometry x="772" y="525" width="60" height="30" as="geometry" />
        </mxCell>
        <mxCell id="TISyKrs998pfCiCvNHpI-44" value="ISBN" style="ellipse;whiteSpace=wrap;html=1;fillColor=#FAE5C7;strokeColor=#0F8B8D;fontColor=#143642;" parent="1" vertex="1">
          <mxGeometry x="752" y="490" width="60" height="30" as="geometry" />
        </mxCell>
        <mxCell id="TISyKrs998pfCiCvNHpI-45" value="status" style="ellipse;whiteSpace=wrap;html=1;fillColor=#FAE5C7;strokeColor=#0F8B8D;fontColor=#143642;" parent="1" vertex="1">
          <mxGeometry x="682" y="580" width="60" height="30" as="geometry" />
        </mxCell>
        <mxCell id="TISyKrs998pfCiCvNHpI-46" value="admin" style="ellipse;whiteSpace=wrap;html=1;fillColor=#FAE5C7;strokeColor=#0F8B8D;fontColor=#143642;" parent="1" vertex="1">
          <mxGeometry x="702" y="450" width="60" height="30" as="geometry" />
        </mxCell>
        <mxCell id="TISyKrs998pfCiCvNHpI-47" value="barcode" style="ellipse;whiteSpace=wrap;html=1;fillColor=#FAE5C7;strokeColor=#0F8B8D;fontColor=#143642;" parent="1" vertex="1">
          <mxGeometry x="482" y="425" width="60" height="30" as="geometry" />
        </mxCell>
        <mxCell id="TISyKrs998pfCiCvNHpI-48" value="id" style="ellipse;whiteSpace=wrap;html=1;fillColor=#FAE5C7;strokeColor=#0F8B8D;fontColor=#143642;" parent="1" vertex="1">
          <mxGeometry x="312" y="370" width="60" height="30" as="geometry" />
        </mxCell>
        <mxCell id="TISyKrs998pfCiCvNHpI-49" value="borrow" style="ellipse;whiteSpace=wrap;html=1;fillColor=#FAE5C7;strokeColor=#0F8B8D;fontColor=#143642;" parent="1" vertex="1">
          <mxGeometry x="382" y="360" width="60" height="30" as="geometry" />
        </mxCell>
        <mxCell id="TISyKrs998pfCiCvNHpI-50" value="start_date" style="ellipse;whiteSpace=wrap;html=1;fillColor=#FAE5C7;strokeColor=#0F8B8D;fontColor=#143642;" parent="1" vertex="1">
          <mxGeometry x="442" y="480" width="60" height="30" as="geometry" />
        </mxCell>
        <mxCell id="TISyKrs998pfCiCvNHpI-51" value="card_id" style="ellipse;whiteSpace=wrap;html=1;fillColor=#FAE5C7;strokeColor=#0F8B8D;fontColor=#143642;" parent="1" vertex="1">
          <mxGeometry x="382" y="505" width="60" height="30" as="geometry" />
        </mxCell>
        <mxCell id="TISyKrs998pfCiCvNHpI-52" value="end_date" style="ellipse;whiteSpace=wrap;html=1;fillColor=#FAE5C7;strokeColor=#0F8B8D;fontColor=#143642;" parent="1" vertex="1">
          <mxGeometry x="442" y="370" width="60" height="30" as="geometry" />
        </mxCell>
        <mxCell id="TISyKrs998pfCiCvNHpI-53" value="due_date" style="ellipse;whiteSpace=wrap;html=1;fillColor=#FAE5C7;strokeColor=#0F8B8D;fontColor=#143642;" parent="1" vertex="1">
          <mxGeometry x="322" y="490" width="60" height="30" as="geometry" />
        </mxCell>
        <mxCell id="TISyKrs998pfCiCvNHpI-54" value="return" style="ellipse;whiteSpace=wrap;html=1;fillColor=#FAE5C7;strokeColor=#0F8B8D;fontColor=#143642;" parent="1" vertex="1">
          <mxGeometry x="282" y="425" width="60" height="30" as="geometry" />
        </mxCell>
        <mxCell id="TISyKrs998pfCiCvNHpI-56" value="" style="endArrow=none;html=1;rounded=0;entryX=0.5;entryY=1;entryDx=0;entryDy=0;exitX=0.5;exitY=0;exitDx=0;exitDy=0;labelBackgroundColor=#DAD2D8;strokeColor=#A8201A;fontColor=#143642;fillColor=#FAE5C7;" parent="1" source="0_cgmdYACFYFVNxgg6Bf-1" target="TISyKrs998pfCiCvNHpI-49" edge="1">
          <mxGeometry width="50" height="50" relative="1" as="geometry">
            <mxPoint x="402" y="400" as="sourcePoint" />
            <mxPoint x="452" y="350" as="targetPoint" />
          </mxGeometry>
        </mxCell>
        <mxCell id="TISyKrs998pfCiCvNHpI-57" value="" style="endArrow=none;html=1;rounded=0;labelBackgroundColor=#DAD2D8;strokeColor=#A8201A;fontColor=#143642;fillColor=#FAE5C7;" parent="1" edge="1">
          <mxGeometry width="50" height="50" relative="1" as="geometry">
            <mxPoint x="452" y="420" as="sourcePoint" />
            <mxPoint x="472" y="400" as="targetPoint" />
          </mxGeometry>
        </mxCell>
        <mxCell id="TISyKrs998pfCiCvNHpI-61" value="" style="endArrow=none;html=1;rounded=0;entryX=0;entryY=0.5;entryDx=0;entryDy=0;exitX=1;exitY=0.5;exitDx=0;exitDy=0;labelBackgroundColor=#DAD2D8;strokeColor=#A8201A;fontColor=#143642;fillColor=#FAE5C7;" parent="1" source="0_cgmdYACFYFVNxgg6Bf-1" target="TISyKrs998pfCiCvNHpI-47" edge="1">
          <mxGeometry width="50" height="50" relative="1" as="geometry">
            <mxPoint x="472" y="580" as="sourcePoint" />
            <mxPoint x="522" y="530" as="targetPoint" />
          </mxGeometry>
        </mxCell>
        <mxCell id="TISyKrs998pfCiCvNHpI-62" value="" style="endArrow=none;html=1;rounded=0;entryX=0;entryY=0;entryDx=0;entryDy=0;exitX=0.75;exitY=1;exitDx=0;exitDy=0;labelBackgroundColor=#DAD2D8;strokeColor=#A8201A;fontColor=#143642;fillColor=#FAE5C7;" parent="1" source="0_cgmdYACFYFVNxgg6Bf-1" target="TISyKrs998pfCiCvNHpI-50" edge="1">
          <mxGeometry width="50" height="50" relative="1" as="geometry">
            <mxPoint x="402" y="400" as="sourcePoint" />
            <mxPoint x="452" y="350" as="targetPoint" />
          </mxGeometry>
        </mxCell>
        <mxCell id="TISyKrs998pfCiCvNHpI-63" value="" style="endArrow=none;html=1;rounded=0;exitX=0.5;exitY=1;exitDx=0;exitDy=0;entryX=0.5;entryY=0;entryDx=0;entryDy=0;labelBackgroundColor=#DAD2D8;strokeColor=#A8201A;fontColor=#143642;fillColor=#FAE5C7;" parent="1" source="0_cgmdYACFYFVNxgg6Bf-1" target="TISyKrs998pfCiCvNHpI-51" edge="1">
          <mxGeometry width="50" height="50" relative="1" as="geometry">
            <mxPoint x="402" y="400" as="sourcePoint" />
            <mxPoint x="412" y="500" as="targetPoint" />
          </mxGeometry>
        </mxCell>
        <mxCell id="TISyKrs998pfCiCvNHpI-64" value="" style="endArrow=none;html=1;rounded=0;entryX=0.25;entryY=1;entryDx=0;entryDy=0;exitX=0.5;exitY=0;exitDx=0;exitDy=0;labelBackgroundColor=#DAD2D8;strokeColor=#A8201A;fontColor=#143642;fillColor=#FAE5C7;" parent="1" source="TISyKrs998pfCiCvNHpI-53" target="0_cgmdYACFYFVNxgg6Bf-1" edge="1">
          <mxGeometry width="50" height="50" relative="1" as="geometry">
            <mxPoint x="372" y="670" as="sourcePoint" />
            <mxPoint x="422" y="620" as="targetPoint" />
          </mxGeometry>
        </mxCell>
        <mxCell id="TISyKrs998pfCiCvNHpI-65" value="" style="endArrow=none;html=1;rounded=0;entryX=0;entryY=0.5;entryDx=0;entryDy=0;exitX=1;exitY=0.5;exitDx=0;exitDy=0;labelBackgroundColor=#DAD2D8;strokeColor=#A8201A;fontColor=#143642;fillColor=#FAE5C7;" parent="1" source="TISyKrs998pfCiCvNHpI-54" target="0_cgmdYACFYFVNxgg6Bf-1" edge="1">
          <mxGeometry width="50" height="50" relative="1" as="geometry">
            <mxPoint x="302" y="660" as="sourcePoint" />
            <mxPoint x="352" y="610" as="targetPoint" />
          </mxGeometry>
        </mxCell>
        <mxCell id="TISyKrs998pfCiCvNHpI-66" value="" style="endArrow=none;html=1;rounded=0;entryX=1;entryY=1;entryDx=0;entryDy=0;exitX=0.25;exitY=0;exitDx=0;exitDy=0;labelBackgroundColor=#DAD2D8;strokeColor=#A8201A;fontColor=#143642;fillColor=#FAE5C7;" parent="1" source="0_cgmdYACFYFVNxgg6Bf-1" target="TISyKrs998pfCiCvNHpI-48" edge="1">
          <mxGeometry width="50" height="50" relative="1" as="geometry">
            <mxPoint x="342" y="650" as="sourcePoint" />
            <mxPoint x="392" y="600" as="targetPoint" />
          </mxGeometry>
        </mxCell>
        <mxCell id="TISyKrs998pfCiCvNHpI-67" value="" style="endArrow=none;html=1;rounded=0;exitX=0.25;exitY=0;exitDx=0;exitDy=0;entryX=0.5;entryY=1;entryDx=0;entryDy=0;labelBackgroundColor=#DAD2D8;strokeColor=#A8201A;fontColor=#143642;fillColor=#FAE5C7;" parent="1" source="TISyKrs998pfCiCvNHpI-1" target="TISyKrs998pfCiCvNHpI-31" edge="1">
          <mxGeometry width="50" height="50" relative="1" as="geometry">
            <mxPoint x="72" y="330" as="sourcePoint" />
            <mxPoint x="122" y="280" as="targetPoint" />
          </mxGeometry>
        </mxCell>
        <mxCell id="TISyKrs998pfCiCvNHpI-68" value="" style="endArrow=none;html=1;rounded=0;entryX=0.5;entryY=1;entryDx=0;entryDy=0;exitX=0.848;exitY=-0.025;exitDx=0;exitDy=0;exitPerimeter=0;labelBackgroundColor=#DAD2D8;strokeColor=#A8201A;fontColor=#143642;fillColor=#FAE5C7;" parent="1" source="TISyKrs998pfCiCvNHpI-1" target="TISyKrs998pfCiCvNHpI-28" edge="1">
          <mxGeometry width="50" height="50" relative="1" as="geometry">
            <mxPoint x="142" y="220" as="sourcePoint" />
            <mxPoint x="192" y="170" as="targetPoint" />
          </mxGeometry>
        </mxCell>
        <mxCell id="TISyKrs998pfCiCvNHpI-69" value="" style="endArrow=none;html=1;rounded=0;exitX=1;exitY=0.5;exitDx=0;exitDy=0;entryX=0;entryY=1;entryDx=0;entryDy=0;labelBackgroundColor=#DAD2D8;strokeColor=#A8201A;fontColor=#143642;fillColor=#FAE5C7;" parent="1" source="TISyKrs998pfCiCvNHpI-1" target="TISyKrs998pfCiCvNHpI-36" edge="1">
          <mxGeometry width="50" height="50" relative="1" as="geometry">
            <mxPoint x="172" y="360" as="sourcePoint" />
            <mxPoint x="222" y="310" as="targetPoint" />
          </mxGeometry>
        </mxCell>
        <mxCell id="TISyKrs998pfCiCvNHpI-70" value="" style="endArrow=none;html=1;rounded=0;entryX=0.085;entryY=-0.008;entryDx=0;entryDy=0;entryPerimeter=0;exitX=1;exitY=1;exitDx=0;exitDy=0;labelBackgroundColor=#DAD2D8;strokeColor=#A8201A;fontColor=#143642;fillColor=#FAE5C7;" parent="1" source="TISyKrs998pfCiCvNHpI-37" target="TISyKrs998pfCiCvNHpI-1" edge="1">
          <mxGeometry width="50" height="50" relative="1" as="geometry">
            <mxPoint x="162" y="240" as="sourcePoint" />
            <mxPoint x="212" y="190" as="targetPoint" />
          </mxGeometry>
        </mxCell>
        <mxCell id="TISyKrs998pfCiCvNHpI-71" value="" style="endArrow=none;html=1;rounded=0;entryX=0.661;entryY=-0.078;entryDx=0;entryDy=0;entryPerimeter=0;exitX=0.25;exitY=1;exitDx=0;exitDy=0;labelBackgroundColor=#DAD2D8;strokeColor=#A8201A;fontColor=#143642;fillColor=#FAE5C7;" parent="1" source="TISyKrs998pfCiCvNHpI-1" target="TISyKrs998pfCiCvNHpI-30" edge="1">
          <mxGeometry width="50" height="50" relative="1" as="geometry">
            <mxPoint x="112" y="340" as="sourcePoint" />
            <mxPoint x="222" y="200" as="targetPoint" />
          </mxGeometry>
        </mxCell>
        <mxCell id="TISyKrs998pfCiCvNHpI-72" value="" style="endArrow=none;html=1;rounded=0;entryX=0.5;entryY=0;entryDx=0;entryDy=0;exitX=0.648;exitY=1.008;exitDx=0;exitDy=0;exitPerimeter=0;labelBackgroundColor=#DAD2D8;strokeColor=#A8201A;fontColor=#143642;fillColor=#FAE5C7;" parent="1" source="TISyKrs998pfCiCvNHpI-1" target="TISyKrs998pfCiCvNHpI-35" edge="1">
          <mxGeometry width="50" height="50" relative="1" as="geometry">
            <mxPoint x="182" y="260" as="sourcePoint" />
            <mxPoint x="232" y="210" as="targetPoint" />
          </mxGeometry>
        </mxCell>
        <mxCell id="TISyKrs998pfCiCvNHpI-73" value="" style="endArrow=none;html=1;rounded=0;entryX=0;entryY=0.5;entryDx=0;entryDy=0;exitX=1;exitY=0.75;exitDx=0;exitDy=0;labelBackgroundColor=#DAD2D8;strokeColor=#A8201A;fontColor=#143642;fillColor=#FAE5C7;" parent="1" source="TISyKrs998pfCiCvNHpI-1" target="TISyKrs998pfCiCvNHpI-38" edge="1">
          <mxGeometry width="50" height="50" relative="1" as="geometry">
            <mxPoint x="192" y="270" as="sourcePoint" />
            <mxPoint x="242" y="220" as="targetPoint" />
          </mxGeometry>
        </mxCell>
        <mxCell id="TISyKrs998pfCiCvNHpI-75" value="" style="endArrow=none;html=1;rounded=0;entryX=0;entryY=0.5;entryDx=0;entryDy=0;labelBackgroundColor=#DAD2D8;strokeColor=#A8201A;fontColor=#143642;fillColor=#FAE5C7;" parent="1" target="TISyKrs998pfCiCvNHpI-1" edge="1">
          <mxGeometry width="50" height="50" relative="1" as="geometry">
            <mxPoint x="72" y="325" as="sourcePoint" />
            <mxPoint x="222" y="200" as="targetPoint" />
          </mxGeometry>
        </mxCell>
        <mxCell id="TISyKrs998pfCiCvNHpI-76" value="" style="endArrow=none;html=1;rounded=0;entryX=0;entryY=1;entryDx=0;entryDy=0;exitX=1;exitY=0.5;exitDx=0;exitDy=0;labelBackgroundColor=#DAD2D8;strokeColor=#A8201A;fontColor=#143642;fillColor=#FAE5C7;" parent="1" source="TISyKrs998pfCiCvNHpI-29" target="TISyKrs998pfCiCvNHpI-1" edge="1">
          <mxGeometry width="50" height="50" relative="1" as="geometry">
            <mxPoint x="182" y="260" as="sourcePoint" />
            <mxPoint x="232" y="210" as="targetPoint" />
          </mxGeometry>
        </mxCell>
        <mxCell id="TISyKrs998pfCiCvNHpI-77" value="" style="endArrow=none;html=1;rounded=0;entryX=1;entryY=1;entryDx=0;entryDy=0;labelBackgroundColor=#DAD2D8;strokeColor=#A8201A;fontColor=#143642;fillColor=#FAE5C7;" parent="1" source="TISyKrs998pfCiCvNHpI-20" target="TISyKrs998pfCiCvNHpI-2" edge="1">
          <mxGeometry width="50" height="50" relative="1" as="geometry">
            <mxPoint x="312" y="635" as="sourcePoint" />
            <mxPoint x="362" y="585" as="targetPoint" />
          </mxGeometry>
        </mxCell>
        <mxCell id="TISyKrs998pfCiCvNHpI-78" value="" style="endArrow=none;html=1;rounded=0;entryX=0.5;entryY=1;entryDx=0;entryDy=0;exitX=0.5;exitY=0;exitDx=0;exitDy=0;labelBackgroundColor=#DAD2D8;strokeColor=#A8201A;fontColor=#143642;fillColor=#FAE5C7;" parent="1" source="TISyKrs998pfCiCvNHpI-21" target="TISyKrs998pfCiCvNHpI-2" edge="1">
          <mxGeometry width="50" height="50" relative="1" as="geometry">
            <mxPoint x="322" y="645" as="sourcePoint" />
            <mxPoint x="372" y="595" as="targetPoint" />
          </mxGeometry>
        </mxCell>
        <mxCell id="TISyKrs998pfCiCvNHpI-79" value="" style="endArrow=none;html=1;rounded=0;entryX=0.115;entryY=0.992;entryDx=0;entryDy=0;entryPerimeter=0;exitX=1;exitY=0;exitDx=0;exitDy=0;labelBackgroundColor=#DAD2D8;strokeColor=#A8201A;fontColor=#143642;fillColor=#FAE5C7;" parent="1" source="TISyKrs998pfCiCvNHpI-22" target="TISyKrs998pfCiCvNHpI-2" edge="1">
          <mxGeometry width="50" height="50" relative="1" as="geometry">
            <mxPoint x="332" y="655" as="sourcePoint" />
            <mxPoint x="382" y="605" as="targetPoint" />
          </mxGeometry>
        </mxCell>
        <mxCell id="TISyKrs998pfCiCvNHpI-80" value="" style="endArrow=none;html=1;rounded=0;entryX=0;entryY=0.5;entryDx=0;entryDy=0;exitX=1;exitY=0.5;exitDx=0;exitDy=0;labelBackgroundColor=#DAD2D8;strokeColor=#A8201A;fontColor=#143642;fillColor=#FAE5C7;" parent="1" source="TISyKrs998pfCiCvNHpI-19" target="TISyKrs998pfCiCvNHpI-2" edge="1">
          <mxGeometry width="50" height="50" relative="1" as="geometry">
            <mxPoint x="342" y="665" as="sourcePoint" />
            <mxPoint x="392" y="615" as="targetPoint" />
          </mxGeometry>
        </mxCell>
        <mxCell id="TISyKrs998pfCiCvNHpI-82" value="" style="endArrow=none;html=1;rounded=0;entryX=0.5;entryY=1;entryDx=0;entryDy=0;labelBackgroundColor=#DAD2D8;strokeColor=#A8201A;fontColor=#143642;fillColor=#FAE5C7;" parent="1" source="TISyKrs998pfCiCvNHpI-3" target="TISyKrs998pfCiCvNHpI-40" edge="1">
          <mxGeometry width="50" height="50" relative="1" as="geometry">
            <mxPoint x="362" y="685" as="sourcePoint" />
            <mxPoint x="412" y="635" as="targetPoint" />
          </mxGeometry>
        </mxCell>
        <mxCell id="TISyKrs998pfCiCvNHpI-83" value="" style="endArrow=none;html=1;rounded=0;entryX=0.5;entryY=1;entryDx=0;entryDy=0;exitX=0.75;exitY=0;exitDx=0;exitDy=0;labelBackgroundColor=#DAD2D8;strokeColor=#A8201A;fontColor=#143642;fillColor=#FAE5C7;" parent="1" source="TISyKrs998pfCiCvNHpI-3" target="TISyKrs998pfCiCvNHpI-46" edge="1">
          <mxGeometry width="50" height="50" relative="1" as="geometry">
            <mxPoint x="372" y="695" as="sourcePoint" />
            <mxPoint x="422" y="645" as="targetPoint" />
          </mxGeometry>
        </mxCell>
        <mxCell id="TISyKrs998pfCiCvNHpI-84" value="" style="endArrow=none;html=1;rounded=0;entryX=0;entryY=1;entryDx=0;entryDy=0;exitX=1;exitY=0.5;exitDx=0;exitDy=0;labelBackgroundColor=#DAD2D8;strokeColor=#A8201A;fontColor=#143642;fillColor=#FAE5C7;" parent="1" source="TISyKrs998pfCiCvNHpI-3" target="TISyKrs998pfCiCvNHpI-44" edge="1">
          <mxGeometry width="50" height="50" relative="1" as="geometry">
            <mxPoint x="382" y="705" as="sourcePoint" />
            <mxPoint x="432" y="655" as="targetPoint" />
          </mxGeometry>
        </mxCell>
        <mxCell id="TISyKrs998pfCiCvNHpI-85" value="" style="endArrow=none;html=1;rounded=0;entryX=0;entryY=0.5;entryDx=0;entryDy=0;exitX=1;exitY=0.75;exitDx=0;exitDy=0;labelBackgroundColor=#DAD2D8;strokeColor=#A8201A;fontColor=#143642;fillColor=#FAE5C7;" parent="1" source="TISyKrs998pfCiCvNHpI-3" target="TISyKrs998pfCiCvNHpI-43" edge="1">
          <mxGeometry width="50" height="50" relative="1" as="geometry">
            <mxPoint x="392" y="715" as="sourcePoint" />
            <mxPoint x="442" y="665" as="targetPoint" />
          </mxGeometry>
        </mxCell>
        <mxCell id="TISyKrs998pfCiCvNHpI-86" value="" style="endArrow=none;html=1;rounded=0;entryX=1;entryY=1;entryDx=0;entryDy=0;exitX=0;exitY=0;exitDx=0;exitDy=0;labelBackgroundColor=#DAD2D8;strokeColor=#A8201A;fontColor=#143642;fillColor=#FAE5C7;" parent="1" source="TISyKrs998pfCiCvNHpI-39" target="TISyKrs998pfCiCvNHpI-3" edge="1">
          <mxGeometry width="50" height="50" relative="1" as="geometry">
            <mxPoint x="402" y="725" as="sourcePoint" />
            <mxPoint x="452" y="675" as="targetPoint" />
          </mxGeometry>
        </mxCell>
        <mxCell id="TISyKrs998pfCiCvNHpI-87" value="" style="endArrow=none;html=1;rounded=0;entryX=0.641;entryY=1.042;entryDx=0;entryDy=0;entryPerimeter=0;exitX=0.5;exitY=0;exitDx=0;exitDy=0;labelBackgroundColor=#DAD2D8;strokeColor=#A8201A;fontColor=#143642;fillColor=#FAE5C7;" parent="1" source="TISyKrs998pfCiCvNHpI-45" target="TISyKrs998pfCiCvNHpI-3" edge="1">
          <mxGeometry width="50" height="50" relative="1" as="geometry">
            <mxPoint x="412" y="735" as="sourcePoint" />
            <mxPoint x="462" y="685" as="targetPoint" />
          </mxGeometry>
        </mxCell>
        <mxCell id="TISyKrs998pfCiCvNHpI-88" value="" style="endArrow=none;html=1;rounded=0;entryX=0;entryY=0.75;entryDx=0;entryDy=0;exitX=1;exitY=0.5;exitDx=0;exitDy=0;labelBackgroundColor=#DAD2D8;strokeColor=#A8201A;fontColor=#143642;fillColor=#FAE5C7;" parent="1" source="TISyKrs998pfCiCvNHpI-41" target="TISyKrs998pfCiCvNHpI-3" edge="1">
          <mxGeometry width="50" height="50" relative="1" as="geometry">
            <mxPoint x="422" y="745" as="sourcePoint" />
            <mxPoint x="472" y="695" as="targetPoint" />
          </mxGeometry>
        </mxCell>
        <mxCell id="TISyKrs998pfCiCvNHpI-89" value="" style="endArrow=none;html=1;rounded=0;entryX=0.167;entryY=1.042;entryDx=0;entryDy=0;entryPerimeter=0;exitX=0.5;exitY=0;exitDx=0;exitDy=0;labelBackgroundColor=#DAD2D8;strokeColor=#A8201A;fontColor=#143642;fillColor=#FAE5C7;" parent="1" source="TISyKrs998pfCiCvNHpI-42" target="TISyKrs998pfCiCvNHpI-3" edge="1">
          <mxGeometry width="50" height="50" relative="1" as="geometry">
            <mxPoint x="432" y="755" as="sourcePoint" />
            <mxPoint x="482" y="705" as="targetPoint" />
          </mxGeometry>
        </mxCell>
        <mxCell id="TISyKrs998pfCiCvNHpI-90" value="" style="endArrow=none;html=1;rounded=0;entryX=0;entryY=0;entryDx=0;entryDy=0;exitX=1;exitY=0.75;exitDx=0;exitDy=0;labelBackgroundColor=#DAD2D8;strokeColor=#A8201A;fontColor=#143642;fillColor=#FAE5C7;" parent="1" source="TISyKrs998pfCiCvNHpI-4" target="TISyKrs998pfCiCvNHpI-25" edge="1">
          <mxGeometry width="50" height="50" relative="1" as="geometry">
            <mxPoint x="692" y="180" as="sourcePoint" />
            <mxPoint x="742" y="130" as="targetPoint" />
          </mxGeometry>
        </mxCell>
        <mxCell id="TISyKrs998pfCiCvNHpI-91" value="" style="endArrow=none;html=1;rounded=0;entryX=0;entryY=0.5;entryDx=0;entryDy=0;exitX=1;exitY=0.25;exitDx=0;exitDy=0;labelBackgroundColor=#DAD2D8;strokeColor=#A8201A;fontColor=#143642;fillColor=#FAE5C7;" parent="1" source="TISyKrs998pfCiCvNHpI-4" target="TISyKrs998pfCiCvNHpI-23" edge="1">
          <mxGeometry width="50" height="50" relative="1" as="geometry">
            <mxPoint x="702" y="190" as="sourcePoint" />
            <mxPoint x="752" y="140" as="targetPoint" />
          </mxGeometry>
        </mxCell>
        <mxCell id="TISyKrs998pfCiCvNHpI-92" value="" style="endArrow=none;html=1;rounded=0;entryX=0;entryY=1;entryDx=0;entryDy=0;exitX=0.75;exitY=0;exitDx=0;exitDy=0;labelBackgroundColor=#DAD2D8;strokeColor=#A8201A;fontColor=#143642;fillColor=#FAE5C7;" parent="1" source="TISyKrs998pfCiCvNHpI-4" target="TISyKrs998pfCiCvNHpI-24" edge="1">
          <mxGeometry width="50" height="50" relative="1" as="geometry">
            <mxPoint x="712" y="200" as="sourcePoint" />
            <mxPoint x="762" y="150" as="targetPoint" />
          </mxGeometry>
        </mxCell>
        <mxCell id="TISyKrs998pfCiCvNHpI-93" value="" style="endArrow=none;html=1;rounded=0;entryX=0.5;entryY=1;entryDx=0;entryDy=0;labelBackgroundColor=#DAD2D8;strokeColor=#A8201A;fontColor=#143642;fillColor=#FAE5C7;" parent="1" source="TISyKrs998pfCiCvNHpI-4" target="TISyKrs998pfCiCvNHpI-27" edge="1">
          <mxGeometry width="50" height="50" relative="1" as="geometry">
            <mxPoint x="722" y="210" as="sourcePoint" />
            <mxPoint x="772" y="160" as="targetPoint" />
          </mxGeometry>
        </mxCell>
        <mxCell id="TISyKrs998pfCiCvNHpI-94" value="" style="endArrow=none;html=1;rounded=0;entryX=0.5;entryY=1;entryDx=0;entryDy=0;exitX=0.25;exitY=0;exitDx=0;exitDy=0;labelBackgroundColor=#DAD2D8;strokeColor=#A8201A;fontColor=#143642;fillColor=#FAE5C7;" parent="1" source="TISyKrs998pfCiCvNHpI-4" target="TISyKrs998pfCiCvNHpI-26" edge="1">
          <mxGeometry width="50" height="50" relative="1" as="geometry">
            <mxPoint x="732" y="220" as="sourcePoint" />
            <mxPoint x="782" y="170" as="targetPoint" />
          </mxGeometry>
        </mxCell>
        <mxCell id="3e3VVNeyUD89QNQ9KhLq-2" value="" style="shape=image;html=1;verticalAlign=top;verticalLabelPosition=bottom;labelBackgroundColor=#DAD2D8;imageAspect=0;aspect=fixed;image=https://cdn1.iconfinder.com/data/icons/office-icons-17/512/ilustracoes_04-10-128.png;rounded=0;sketch=0;fontColor=#143642;strokeColor=#0F8B8D;fillColor=#FAE5C7;" vertex="1" parent="1">
          <mxGeometry x="19" y="104" width="96" height="96" as="geometry" />
        </mxCell>
        <mxCell id="3e3VVNeyUD89QNQ9KhLq-3" value="&lt;font style=&quot;font-size: 18px&quot;&gt;Book Management System Database ER Figure&lt;br&gt;Created By Dawei Li, Hengyuan Zhang&lt;/font&gt;" style="shape=process;whiteSpace=wrap;html=1;backgroundOutline=1;rounded=0;sketch=0;strokeColor=#6c8ebf;fillColor=#dae8fc;" vertex="1" parent="1">
          <mxGeometry x="182" y="115" width="496" height="74" as="geometry" />
        </mxCell>
      </root>
    </mxGraphModel>
  </diagram>
</mxfile>
